<?xml version="1.0" encoding="utf-8"?>
<!-- Generator: Adobe Illustrator 24.0.1, SVG Export Plug-In . SVG Version: 6.00 Build 0)  -->
<svg version="1.1" id="Layer_2_1_" xmlns="http://www.w3.org/2000/svg" xmlns:xlink="http://www.w3.org/1999/xlink" x="0px" y="0px"
	 viewBox="0 0 24 24" style="enable-background:new 0 0 24 24;" xml:space="preserve">
<path d="M23.2,21.8H7.4l-0.7-1l1.2-3.7l0.7-0.5h14.7l0.8,0.8V21L23.2,21.8z M8.4,20.2h14.1V18H9.1L8.4,20.2z M3.5,21.8H0.8L0,21
	v-3.7l0.8-0.8h4l0.7,1l-1.3,3.7L3.5,21.8z M1.5,20.2h1.4L3.7,18H1.5V20.2z M23.2,14.5H9.8l-0.7-1l1.2-3.7L11,9.4h12.3l0.8,0.8v3.7
	L23.2,14.5z M10.8,13h11.7v-2.2h-11L10.8,13z M5.9,14.5H0.8L0,13.8v-3.7l0.8-0.8H7l0.7,1L6.6,14L5.9,14.5z M1.5,13h3.8L6,10.9H1.5
	V13z M23.2,7.5H12.1l-0.7-1l1.2-3.7l0.7-0.5h9.9L24,3v3.7L23.2,7.5z M13.2,6h9.3V3.8h-8.6L13.2,6z M8.1,7.5H0.8L0,6.7V3l0.8-0.8h8.7
	l0.7,1L8.9,6.9L8.1,7.5z M1.5,6h6.1l0.8-2.2H1.5V6z"/>
</svg>
